<svg width="100" height="100" viewBox="0 0 100 100" fill="none" xmlns="http://www.w3.org/2000/svg">
<path d="M49.8155 100C77.3278 100 99.631 77.6142 99.631 50C99.631 22.3858 77.3278 0 49.8155 0C22.3032 0 0 22.3858 0 50C0 77.6142 22.3032 100 49.8155 100Z" fill="#B00000" fill-opacity="0.15"/>
<path d="M26.4905 45.8496H23.7123C23.2366 45.8496 22.7804 46.0533 22.444 46.416C22.1077 46.7787 21.9187 47.2706 21.9187 47.7834V55.54C21.9187 56.0528 22.1077 56.5447 22.444 56.9074C22.7804 57.27 23.2366 57.4738 23.7123 57.4738H26.4905" stroke="#B00000" stroke-width="3.11405" stroke-linecap="round"/>
<path d="M73.9596 45.8496H75.9173C76.393 45.8496 76.8492 46.0533 77.1856 46.416C77.5219 46.7787 77.7109 47.2706 77.7109 47.7834V55.54C77.7109 56.0528 77.5219 56.5447 77.1856 56.9074C76.8492 57.27 76.393 57.4738 75.9173 57.4738H73.1392" stroke="#B00000" stroke-width="3.11405" stroke-linecap="round"/>
<path d="M60.2121 70.5232H63.8576C67.9735 67.5176 71.0296 63.2702 72.582 58.3979C74.1343 53.5255 74.102 48.2822 72.4897 43.4296C70.8775 38.577 67.7692 34.368 63.6166 31.4141C59.464 28.4601 54.4833 26.9151 49.3982 27.0036C44.3132 27.092 39.3885 28.8093 35.3399 31.9059C31.2913 35.0025 28.3295 39.3171 26.885 44.2229C25.4404 49.1286 25.5883 54.3699 27.3071 59.1853C29.026 64.0008 32.2262 68.1394 36.4429 71" stroke="#B00000" stroke-width="3" stroke-linecap="round"/>
<path d="M57.3704 72.8249H47.7347C47.2303 72.8227 46.7472 72.6166 46.3905 72.2516C46.0339 71.8866 45.8325 71.3922 45.8303 70.876V70.6218C45.8328 70.1057 46.0342 69.6114 46.3908 69.2465C46.7474 68.8815 47.2304 68.6754 47.7347 68.6729H57.3704C57.8748 68.6751 58.3579 68.8811 58.7146 69.2462C59.0713 69.6112 59.2726 70.1056 59.2748 70.6218V70.876C59.2728 71.3923 59.0716 71.8869 58.7149 72.2519C58.3582 72.617 57.8749 72.823 57.3704 72.8249Z" stroke="#B00000" stroke-width="3" stroke-linecap="round"/>
<path d="M35.0567 55.8622H41.2782V54.3537H37.6135V54.294L38.8876 53.0454C40.6817 51.4091 41.1632 50.5909 41.1632 49.598C41.1632 48.0852 39.9274 47.0156 38.0567 47.0156C36.2243 47.0156 34.9672 48.1108 34.9714 49.8239H36.7228C36.7186 48.9886 37.247 48.4773 38.0439 48.4773C38.8109 48.4773 39.3819 48.9545 39.3819 49.7216C39.3819 50.4162 38.9558 50.8935 38.1632 51.6562L35.0567 54.5327V55.8622ZM42.2956 54.3281H46.4846V55.8622H48.2488V54.3281H49.3312V52.8494H48.2488V47.1349H45.9391L42.2956 52.875V54.3281ZM46.5187 52.8494H44.1536V52.7812L46.4505 49.1463H46.5187V52.8494ZM55.9171 54.652L57.0378 53.5312L55.052 51.5497L57.0378 49.5682L55.9171 48.4389L53.9313 50.4247L51.9412 48.4389L50.8248 49.5682L52.8063 51.5497L50.8248 53.5312L51.9412 54.652L53.9313 52.6662L55.9171 54.652ZM59.062 55.8622H60.9668L64.589 48.6648V47.1349H58.4654V48.6435H62.6799V48.7031L59.062 55.8622Z" fill="#B00000"/>
</svg>
