<svg xmlns="http://www.w3.org/2000/svg" width="25" height="25" fill="none"><path fill="#fff" d="M20.161 4.741a10.758 10.758 0 0 0-7.666-3.178c-5.976 0-10.84 4.863-10.84 10.84 0 1.909.498 3.774 1.446 5.42l-1.538 5.614L7.31 21.93a10.806 10.806 0 0 0 5.18 1.318h.005c5.972 0 10.943-4.863 10.943-10.84 0-2.895-1.231-5.615-3.277-7.666Zm-7.666 16.68a8.994 8.994 0 0 1-4.59-1.255l-.327-.195-3.408.893.908-3.325-.215-.342a8.98 8.98 0 0 1-1.377-4.795c0-4.965 4.043-9.008 9.014-9.008a8.93 8.93 0 0 1 6.367 2.641c1.7 1.704 2.744 3.965 2.74 6.372 0 4.97-4.146 9.014-9.112 9.014Zm4.941-6.748c-.268-.137-1.601-.791-1.85-.88-.25-.092-.43-.136-.61.138-.181.273-.699.879-.86 1.064-.156.18-.317.205-.586.069-1.591-.796-2.636-1.421-3.686-3.223-.279-.479.278-.444.796-1.48.087-.18.044-.337-.025-.473-.068-.137-.61-1.47-.835-2.012-.22-.527-.444-.454-.61-.464-.156-.01-.337-.01-.518-.01-.18 0-.473.069-.722.337-.25.274-.948.928-.948 2.261 0 1.333.972 2.622 1.104 2.803.137.18 1.91 2.915 4.629 4.091 1.719.743 2.392.806 3.252.68.522-.079 1.601-.655 1.826-1.29.225-.635.225-1.177.156-1.289-.063-.122-.244-.19-.513-.322Z"/></svg>